<svg width="22" height="22" viewBox="0 0 22 22" fill="none" xmlns="http://www.w3.org/2000/svg">
<path d="M16.8333 0.546387H5.16667C2.5895 0.546387 0.5 2.63589 0.5 5.21305V16.8797C0.5 19.4569 2.5895 21.5464 5.16667 21.5464H11.7245V13.4252H8.991V10.2461H11.7245V7.90689C11.7245 5.19555 13.3823 3.71739 15.802 3.71739C16.6175 3.71505 17.4318 3.75705 18.2427 3.83989V6.67489H16.5767C15.2583 6.67489 15.0017 7.29789 15.0017 8.21722V10.2414H18.1517L17.7422 13.4206H14.983V21.5464H16.8333C19.4105 21.5464 21.5 19.4569 21.5 16.8797V5.21305C21.5 2.63589 19.4105 0.546387 16.8333 0.546387Z" fill="#FAFCFF"/>
</svg>
