<svg width="22" height="22" viewBox="0 0 22 22" fill="none" xmlns="http://www.w3.org/2000/svg">
<path d="M6.33333 0.546387C3.11217 0.546387 0.5 3.15855 0.5 6.37972V15.7131C0.5 18.9342 3.11217 21.5464 6.33333 21.5464H15.6667C18.8878 21.5464 21.5 18.9342 21.5 15.7131V6.37972C21.5 3.15855 18.8878 0.546387 15.6667 0.546387H6.33333ZM18 2.87972C18.644 2.87972 19.1667 3.40239 19.1667 4.04639C19.1667 4.69039 18.644 5.21305 18 5.21305C17.356 5.21305 16.8333 4.69039 16.8333 4.04639C16.8333 3.40239 17.356 2.87972 18 2.87972ZM11 5.21305C14.2212 5.21305 16.8333 7.82522 16.8333 11.0464C16.8333 14.2676 14.2212 16.8797 11 16.8797C7.77883 16.8797 5.16667 14.2676 5.16667 11.0464C5.16667 7.82522 7.77883 5.21305 11 5.21305ZM11 7.54639C10.0717 7.54639 9.1815 7.91513 8.52513 8.57151C7.86875 9.22789 7.5 10.1181 7.5 11.0464C7.5 11.9746 7.86875 12.8649 8.52513 13.5213C9.1815 14.1776 10.0717 14.5464 11 14.5464C11.9283 14.5464 12.8185 14.1776 13.4749 13.5213C14.1313 12.8649 14.5 11.9746 14.5 11.0464C14.5 10.1181 14.1313 9.22789 13.4749 8.57151C12.8185 7.91513 11.9283 7.54639 11 7.54639Z" fill="#FAFCFF"/>
</svg>
