<svg width="22" height="22" viewBox="0 0 22 22" fill="none" xmlns="http://www.w3.org/2000/svg">
<path d="M8.7285 6.36572L15.298 15.7271H13.5515L6.99367 6.36572H8.7285ZM21.5 16.5464C21.5 19.3078 19.2614 21.5464 16.5 21.5464H5.5C2.73858 21.5464 0.5 19.3078 0.5 16.5464V5.54639C0.5 2.78496 2.73858 0.546387 5.5 0.546387H16.5C19.2614 0.546387 21.5 2.78496 21.5 5.54639V16.5464ZM17.461 16.8797L12.5773 9.89139L16.5697 5.21305H15.0402L11.8855 8.89972L9.31067 5.21305H4.819L9.41683 11.7849L5.057 16.8797H6.61217L10.1133 12.7777L12.981 16.8797H17.461Z" fill="#FAFCFF"/>
</svg>
